# xmcd
#
# Track frame offsets:
#	150
#	14247
#	29962
#	47038
#	64668
#	79586
#	95078
#	115816
#	133621
#	152140
#	166592
#	183133
#
# Disc length: 2671 seconds
#
# Revision: 0
# Processed by: cddbd v1.5.2PL0 Copyright (c) Steve Scherf et al.
# Submitted via: audiograbber 1.83.01
#
DISCID=9d0a6d0c
DTITLE=Various Artist - CDX Volume 542 (March 26, 2012)
DYEAR=2012
DGENRE=Country
TTITLE0=Dierks Bentley - 5-1-5-0
TTITLE1=Carrie Underwood - Good Girl 
TTITLE2=Chris Young - Neon
TTITLE3=Kix Brooks - New To This Town (featuring Joe Walsh)
TTITLE4=Jerrod Niemann - Shinin' On Me 
TTITLE5=Brad Wolf - Too Many Mondays, Not Enough Saturday Nights
TTITLE6=Jason and The Haymakers - Come On Baby 
TTITLE7=Craig Wayne Boyd - I Ain't No Quitter
TTITLE8=Michelle Turley - Orange Blossoms In Phoenix
TTITLE9=Rachele Lynae - Party 'Til The Cows Come Home
TTITLE10=Colton James - Take This Country Back
TTITLE11=Jason Sturgeon - Time Bomb 
EXTD=
EXTT0=
EXTT1=
EXTT2=
EXTT3=
EXTT4=
EXTT5=
EXTT6=
EXTT7=
EXTT8=
EXTT9=
EXTT10=
EXTT11=
PLAYORDER=
